<?xml version="1.0" encoding="UTF-8" standalone="no"?>
<svg t="1713258123887" class="icon" viewBox="0 0 1024 1024" version="1.1" xmlns="http://www.w3.org/2000/svg" p-id="16452" width="200" height="200">
	<path d="M174 960c-17.2 0-33.4-6.8-45.6-18.8l-78-79c-1.2-1.2-2.4-2.6-3.6-4-22.6-27-19-67.6 8-90.2 66.8-56.2 215-188.6 295-267.6 33.8-33.4 55.6-54.8 69.4-68.4l8.6-8.6c21.4-21.2 54.4-27.2 82-15 8.6 3.8 16.2 9.2 22.8 15.8l36.6 36 0.2 0.2c5.4 5.4 9.8 11.4 13.4 18 0.2 0.2 0.2 0.6 0.4 0.8 15 29 9.6 64.2-13.4 87.4l-0.4 0.4c-4.8 4.6-10.8 10.6-18.6 18.4-13.6 13.6-32.2 32-58 57.4-76.2 75.4-208.8 222.2-270 294.4-1.2 1.4-2.4 2.6-3.6 3.8-11.8 12.4-28 19-45.2 19z m305.8-493.8c-2.6 0-5.2 1-7 2.8l-8.8 8.6c-13.8 13.6-35.4 34.8-69.2 68.2C313.8 626 163.8 760 96 817L174 896h0.2c62-73 196.2-221.8 273.8-298.4 25.8-25.4 44.2-43.8 57.8-57.2 7.8-7.8 13.8-13.8 18.6-18.4 3.2-3.4 4.2-8.6 2-12.8-0.8-1.2-1.6-2.4-2.6-3.4l-36.4-36-0.4-0.4c-1-1-2.2-1.8-3.4-2.4-1-0.6-2.4-0.8-3.8-0.8z" p-id="16453" fill="#ffffff"></path>
	<path d="M837.6 562.8c-11.2 0-22.2-4.4-30.2-12.4l-68.6-68-0.2-0.2-0.2-0.2c-16.6-16.8-16.4-44.2 0.4-60.8l0.4-0.4 3.6-3.4c0.6-0.6 0.6-1.6 0.6-2-7-3.8-14.8-5.6-22.8-4.8-2.6 0.2-13.8 2-29.2 11.6-15.2 9.4-46.6 36-76.2 64.6l-0.2 0.2c-19 18-48.2 17.8-66.8-0.6L506 444c-18-17.8-19-46.6-2.2-65.6 47-53.2 53.4-77.4 52.8-87.2-1.8-38-13-63.4-36.4-82.2-14-11-45.2-24-71.4-26.2-12.4-1-24.8-0.2-37 2.4-6 1.4-11.8 3.2-17.6 5.2-13.2 4.8-28 0.4-36.4-10.8-8.4-11.2-8.6-26.6-0.4-38 1.4-2 14.6-20 28.4-32.4 18.4-16.8 66.4-45.2 129.4-45.2h0.2c36.6 0 72.2 7 106 20.8 89.6 36.6 147.2 85.8 173.6 112 17.8 17.8 34.4 37 49.4 57 0.2 0.2 0.2 0.4 0.4 0.6 12.6 17.8 11.2 37.4 10.4 50.4 0 0.8-0.2 1.6-0.2 2.6 7.4-5.4 16.4-8.4 25.4-8.4h0.4c11.4 0 22.4 4.6 30.4 12.6l68.6 68 0.8 0.8c16 16.8 16 43.2 0 60-0.2 0.2-0.4 0.6-0.8 0.8l-111 109.6-0.2 0.2c-8.2 7.8-18.8 12.2-30 12.2-0.6-0.4-0.8-0.4-1-0.4z m-40-112.2l40.2 40 81.6-80.6-42-41.6c-8.8 3.8-18.4 5.2-28 4-17.8-2-32.8-8.4-43.2-18.6l-0.2-0.2c-17.8-17.4-16.2-40-15.2-53.6 0.2-3.2 0.6-7.6 0.4-10-12.8-17-26.8-33.2-41.8-48-18.4-18.2-70.2-64.6-152.6-98-26.2-10.6-53.6-16.2-81.8-16.2-5.4 0-10.6 0.2-15.4 0.8 22.8 7.4 44.6 18 60 30.2l0.2 0.2c38 30.4 57.8 72.6 60.4 129 2 41.6-28.4 85.4-58.8 121l20.8 20.8c25-23.6 55.4-49.8 75.6-62.2 25.2-15.4 45.8-19.6 56-20.8h0.4c21.6-2 42.8 2.6 61.6 13.4 4.8 2.8 9.2 6.2 13.2 10.2 12.4 12.6 18.8 29.2 18.4 47-0.2 12-3.6 23.4-9.8 33.2z m-246.8-52.4z m315-41.4z" p-id="16454" fill="#ffffff"></path>
</svg>